<?xml version="1.0" encoding="UTF-8"?>
<!DOCTYPE svg PUBLIC "-//W3C//DTD SVG 1.1//EN" "http://www.w3.org/Graphics/SVG/1.1/DTD/svg11.dtd">
<!-- Creator: CorelDRAW X7 -->
<svg xmlns="http://www.w3.org/2000/svg" xml:space="preserve" width="531px" height="379px" version="1.1" style="shape-rendering:geometricPrecision; text-rendering:geometricPrecision; image-rendering:optimizeQuality; fill-rule:evenodd; clip-rule:evenodd"
viewBox="0 0 4680 3340"
 xmlns:xlink="http://www.w3.org/1999/xlink">
 <defs>
  <style type="text/css">
   <![CDATA[
    .fil0 {fill:#1C1038}
   ]]>
  </style>
 </defs>
 <g id="Слой_x0020_1">
  <metadata id="CorelCorpID_0Corel-Layer"/>
  <path class="fil0" d="M176 1867c51,62 247,54 246,90 -1,26 7,228 -13,229 -110,8 -167,-6 -266,59 -166,108 -233,406 53,559l53 28c22,78 -25,317 205,445 157,88 407,59 584,59l2614 -1c334,0 753,66 772,-432 6,-131 27,-43 162,-172 164,-156 131,-510 -235,-540 -123,-11 -93,38 -89,-233 1,-38 204,-50 231,-73 12,-11 15,-27 16,-42 9,-149 -251,-19 -250,-62 4,-181 -17,-102 88,-189 48,-40 72,-91 78,-153 45,-411 -182,-764 -500,-1005 -755,-571 -2420,-586 -3168,1 -324,254 -542,577 -501,1004 16,165 145,175 162,221 2,5 16,131 -6,130 -85,-4 -266,-78 -236,77zm1891 -1715c697,-45 1514,47 2001,607 109,126 187,280 211,446 54,370 -49,310 -351,310l-3267 0c-84,0 -244,33 -265,-84 -14,-77 2,-227 20,-303 74,-305 345,-555 610,-704 311,-175 688,-250 1041,-272zm2049 1725c-59,55 -185,64 -261,53 -172,-23 -362,-277 -689,-111 -170,87 -268,175 -465,81 -151,-73 -237,-170 -463,-123 -176,36 -250,169 -448,157 -170,-10 -265,-148 -442,-163 -254,-21 -251,63 -456,143 -84,32 -182,27 -265,-3 -72,-26 -68,-31 -67,-104 0,-27 -9,-153 14,-153l3543 4 -1 219zm-3544 172c53,-12 232,91 459,-50 443,-277 475,152 888,66 161,-34 245,-160 422,-158 176,1 255,120 414,156 414,93 451,-338 888,-67 262,162 470,14 472,60l-5 130 -3535 2c-23,0 -21,-134 -3,-139zm1470 282l2152 -4c153,0 375,-14 344,211 -27,196 -269,154 -409,154 -65,0 -1074,15 -1089,-9 -2,-4 113,-271 -43,-240 -90,18 -15,168 -160,232 -84,37 -638,17 -772,17 -526,0 -1052,-2 -1578,0 -109,1 -248,24 -318,-84 -64,-97 -20,-225 87,-268 59,-23 1508,-23 1564,0 156,65 78,205 161,233 58,20 92,-24 92,-78 -1,-52 -58,-158 -31,-164zm-1640 501l3877 -1c25,0 14,221 -87,305 -133,110 -516,61 -714,60l-2275 0c-188,-1 -384,16 -570,-2 -274,-26 -256,-362 -231,-362zm2968 -2194c19,54 485,212 570,585 32,141 155,114 143,-2 -39,-356 -568,-678 -651,-677 -49,0 -78,49 -62,94zm-456 -246c-73,22 -72,107 -2,131 323,109 273,-72 200,-97 -31,-11 -170,-42 -198,-34zm-220 449c5,31 79,102 104,121 91,67 193,-59 7,-187 -53,-36 -123,0 -111,66zm711 284c29,-55 -6,-129 -74,-110 -21,6 -106,88 -120,109 -37,54 7,119 71,105 28,-6 108,-78 123,-104zm-2183 -94c33,-56 -21,-119 -82,-99 -29,10 -103,85 -118,112 -32,58 19,121 82,99 21,-7 106,-92 118,-112zm296 150c5,25 84,104 107,119 82,54 196,-46 7,-186 -54,-40 -128,-2 -114,67zm714 -836c-122,48 51,233 131,211 128,-35 -52,-242 -131,-211zm-84 605c32,-52 -20,-123 -83,-102 -14,6 -109,97 -118,112 -35,57 21,121 82,99 13,-6 110,-96 119,-109zm-630 -274c18,84 172,80 132,-114 -19,-95 -174,-74 -132,114zm1136 603c57,-114 -178,-133 -207,-60 -49,121 174,126 207,60z"/>
 </g>
</svg>
